<mxfile host="embed.diagrams.net" modified="2023-11-30T18:25:58.391Z" agent="Mozilla/5.0 (Windows NT 10.0; Win64; x64; rv:109.0) Gecko/20100101 Firefox/119.0" etag="nGh5aGBeVGor2NtE8FDU" version="22.1.5" type="embed">
  <diagram name="Page-1" id="64c3da0e-402f-94eb-ee01-a36477274f13">
    <mxGraphModel grid="1" page="1" gridSize="10" guides="1" tooltips="1" connect="1" arrows="1" fold="1" pageScale="1" pageWidth="1169" pageHeight="827" background="#ffffff" math="0" shadow="0">
      <root>
        <mxCell id="0" />
        <mxCell id="1" parent="0" />
        <mxCell id="hF1sT5TiYHARfhPCqGAg-235" value="" style="edgeStyle=elbowEdgeStyle;elbow=horizontal;rounded=0;fontColor=#000000;endArrow=none;endFill=0;strokeWidth=8;strokeColor=#23445D;entryX=0.5;entryY=0;entryDx=0;entryDy=0;exitX=0.5;exitY=1;exitDx=0;exitDy=0;" edge="1" parent="1" source="181" target="V6gHmXdaTy05OcrKAaI_-267">
          <mxGeometry width="100" height="100" relative="1" as="geometry">
            <mxPoint x="1290.3000000000002" y="919.9999999999999" as="sourcePoint" />
            <mxPoint x="1289.5000000000002" y="971.4" as="targetPoint" />
            <Array as="points">
              <mxPoint x="1290" y="1000" />
              <mxPoint x="1290" y="970" />
            </Array>
          </mxGeometry>
        </mxCell>
        <mxCell id="6m1JxplxPn1tWtNCRHSB-244" value="" style="edgeStyle=elbowEdgeStyle;elbow=horizontal;rounded=0;fontColor=#000000;endArrow=none;endFill=0;strokeWidth=8;strokeColor=#23445D;entryX=0.5;entryY=0;entryDx=0;entryDy=0;" edge="1" parent="1">
          <mxGeometry width="100" height="100" relative="1" as="geometry">
            <mxPoint x="2051.2" y="650" as="sourcePoint" />
            <mxPoint x="2050.7" y="600" as="targetPoint" />
            <Array as="points" />
          </mxGeometry>
        </mxCell>
        <mxCell id="V6gHmXdaTy05OcrKAaI_-362" value="" style="edgeStyle=elbowEdgeStyle;elbow=horizontal;rounded=0;fontColor=#000000;endArrow=none;endFill=0;strokeWidth=8;strokeColor=#23445D;exitX=0.5;exitY=0;exitDx=0;exitDy=0;" edge="1" parent="1">
          <mxGeometry width="100" height="100" relative="1" as="geometry">
            <mxPoint x="599.92" y="300" as="sourcePoint" />
            <mxPoint x="599.92" y="260" as="targetPoint" />
            <Array as="points" />
          </mxGeometry>
        </mxCell>
        <mxCell id="V6gHmXdaTy05OcrKAaI_-360" value="" style="edgeStyle=elbowEdgeStyle;elbow=horizontal;rounded=0;fontColor=#000000;endArrow=none;endFill=0;strokeWidth=8;strokeColor=#23445D;exitX=0.5;exitY=0;exitDx=0;exitDy=0;" edge="1" parent="1" source="u-C1nV4K4zA9UqfMprvB-234">
          <mxGeometry width="100" height="100" relative="1" as="geometry">
            <mxPoint x="469.56999999999994" y="390" as="sourcePoint" />
            <mxPoint x="470" y="260" as="targetPoint" />
            <Array as="points" />
          </mxGeometry>
        </mxCell>
        <mxCell id="211" value="" style="edgeStyle=elbowEdgeStyle;elbow=horizontal;rounded=0;fontColor=#000000;endArrow=none;endFill=0;strokeWidth=8;strokeColor=#23445D;exitX=0.5;exitY=1;exitDx=0;exitDy=0;" edge="1" parent="1">
          <mxGeometry width="100" height="100" relative="1" as="geometry">
            <mxPoint x="1960" y="390.00000000000006" as="sourcePoint" />
            <mxPoint x="1880" y="480" as="targetPoint" />
            <Array as="points">
              <mxPoint x="1880" y="500" />
              <mxPoint x="1960" y="439.9999999999996" />
            </Array>
          </mxGeometry>
        </mxCell>
        <mxCell id="V6gHmXdaTy05OcrKAaI_-352" value="" style="edgeStyle=elbowEdgeStyle;elbow=horizontal;rounded=0;fontColor=#000000;endArrow=none;endFill=0;strokeWidth=8;strokeColor=#23445D;fontStyle=1" edge="1" parent="1">
          <mxGeometry width="100" height="100" relative="1" as="geometry">
            <mxPoint x="1069.57" y="460" as="sourcePoint" />
            <mxPoint x="1069.57" y="490" as="targetPoint" />
            <Array as="points">
              <mxPoint x="1069.57" y="470" />
            </Array>
          </mxGeometry>
        </mxCell>
        <mxCell id="212" value="" style="edgeStyle=elbowEdgeStyle;elbow=horizontal;rounded=0;fontColor=#000000;endArrow=none;endFill=0;strokeWidth=8;strokeColor=#23445D;entryX=0.5;entryY=0;entryDx=0;entryDy=0;" edge="1" parent="1" target="202">
          <mxGeometry width="100" height="100" relative="1" as="geometry">
            <mxPoint x="1960" y="390" as="sourcePoint" />
            <mxPoint x="2020" y="470" as="targetPoint" />
            <Array as="points">
              <mxPoint x="2050" y="430" />
            </Array>
          </mxGeometry>
        </mxCell>
        <mxCell id="V6gHmXdaTy05OcrKAaI_-339" value="" style="edgeStyle=elbowEdgeStyle;elbow=horizontal;rounded=0;fontColor=#000000;endArrow=none;endFill=0;strokeWidth=8;strokeColor=#23445D;exitX=0.5;exitY=1;exitDx=0;exitDy=0;entryX=0.5;entryY=0;entryDx=0;entryDy=0;" edge="1" parent="1" source="178" target="V6gHmXdaTy05OcrKAaI_-336">
          <mxGeometry width="100" height="100" relative="1" as="geometry">
            <mxPoint x="2150.07" y="1000" as="sourcePoint" />
            <mxPoint x="2150.07" y="1050" as="targetPoint" />
            <Array as="points" />
          </mxGeometry>
        </mxCell>
        <mxCell id="221" value="" style="edgeStyle=elbowEdgeStyle;elbow=vertical;rounded=0;fontColor=#000000;endArrow=none;endFill=0;strokeWidth=8;strokeColor=#23445D;" edge="1" parent="1" source="6" target="133">
          <mxGeometry width="100" height="100" relative="1" as="geometry">
            <mxPoint x="780" y="270" as="sourcePoint" />
            <mxPoint x="880" y="170" as="targetPoint" />
          </mxGeometry>
        </mxCell>
        <mxCell id="222" value="" style="edgeStyle=elbowEdgeStyle;elbow=vertical;rounded=0;fontColor=#000000;endArrow=none;endFill=0;strokeWidth=8;strokeColor=#23445D;" edge="1" parent="1" source="6" target="134">
          <mxGeometry width="100" height="100" relative="1" as="geometry">
            <mxPoint x="1030" y="280" as="sourcePoint" />
            <mxPoint x="1130" y="180" as="targetPoint" />
          </mxGeometry>
        </mxCell>
        <mxCell id="223" value="" style="edgeStyle=elbowEdgeStyle;elbow=vertical;rounded=0;fontColor=#000000;endArrow=none;endFill=0;strokeWidth=8;strokeColor=#23445D;" edge="1" parent="1" source="7" target="155">
          <mxGeometry width="100" height="100" relative="1" as="geometry">
            <mxPoint x="1340" y="300" as="sourcePoint" />
            <mxPoint x="1240" y="190" as="targetPoint" />
          </mxGeometry>
        </mxCell>
        <mxCell id="224" value="" style="edgeStyle=elbowEdgeStyle;elbow=vertical;rounded=0;fontColor=#000000;endArrow=none;endFill=0;strokeWidth=8;strokeColor=#23445D;" edge="1" parent="1" source="7" target="156">
          <mxGeometry width="100" height="100" relative="1" as="geometry">
            <mxPoint x="1430" y="290" as="sourcePoint" />
            <mxPoint x="1530" y="190" as="targetPoint" />
          </mxGeometry>
        </mxCell>
        <mxCell id="227" value="" style="edgeStyle=elbowEdgeStyle;elbow=vertical;rounded=0;fontColor=#000000;endArrow=none;endFill=0;strokeWidth=8;strokeColor=#23445D;" edge="1" parent="1" source="5" target="199">
          <mxGeometry width="100" height="100" relative="1" as="geometry">
            <mxPoint x="1970" y="300" as="sourcePoint" />
            <mxPoint x="2070" y="200" as="targetPoint" />
          </mxGeometry>
        </mxCell>
        <mxCell id="228" value="" style="edgeStyle=elbowEdgeStyle;elbow=vertical;rounded=0;fontColor=#000000;endArrow=none;endFill=0;strokeWidth=8;strokeColor=#23445D;entryX=0.5;entryY=0;entryDx=0;entryDy=0;" edge="1" parent="1" target="200">
          <mxGeometry width="100" height="100" relative="1" as="geometry">
            <mxPoint x="2151" y="240" as="sourcePoint" />
            <mxPoint x="2661.599853515625" y="278" as="targetPoint" />
          </mxGeometry>
        </mxCell>
        <mxCell id="229" value="" style="edgeStyle=elbowEdgeStyle;elbow=vertical;rounded=0;fontColor=#000000;endArrow=none;endFill=0;strokeWidth=8;strokeColor=#23445D;" edge="1" parent="1" source="2" target="3">
          <mxGeometry width="100" height="100" relative="1" as="geometry">
            <mxPoint x="540" y="140" as="sourcePoint" />
            <mxPoint x="640" y="40" as="targetPoint" />
          </mxGeometry>
        </mxCell>
        <mxCell id="230" value="" style="edgeStyle=elbowEdgeStyle;elbow=vertical;rounded=0;fontColor=#000000;endArrow=none;endFill=0;strokeWidth=8;strokeColor=#23445D;" edge="1" parent="1">
          <mxGeometry width="100" height="100" relative="1" as="geometry">
            <mxPoint x="1169" y="120" as="sourcePoint" />
            <mxPoint x="639" y="179.99999999999977" as="targetPoint" />
            <Array as="points">
              <mxPoint x="639" y="140" />
            </Array>
          </mxGeometry>
        </mxCell>
        <mxCell id="231" value="" style="edgeStyle=elbowEdgeStyle;elbow=vertical;rounded=0;fontColor=#000000;endArrow=none;endFill=0;strokeWidth=8;strokeColor=#23445D;" edge="1" parent="1">
          <mxGeometry width="100" height="100" relative="1" as="geometry">
            <mxPoint x="1169" y="110" as="sourcePoint" />
            <mxPoint x="979" y="169.99999999999977" as="targetPoint" />
          </mxGeometry>
        </mxCell>
        <mxCell id="232" value="" style="edgeStyle=elbowEdgeStyle;elbow=vertical;rounded=0;fontColor=#000000;endArrow=none;endFill=0;strokeWidth=8;strokeColor=#23445D;" edge="1" parent="1" source="2" target="7">
          <mxGeometry width="100" height="100" relative="1" as="geometry">
            <mxPoint x="570" y="170" as="sourcePoint" />
            <mxPoint x="670" y="70" as="targetPoint" />
          </mxGeometry>
        </mxCell>
        <mxCell id="233" value="" style="edgeStyle=elbowEdgeStyle;elbow=vertical;rounded=0;fontColor=#000000;endArrow=none;endFill=0;strokeWidth=8;strokeColor=#23445D;entryX=0.5;entryY=0;entryDx=0;entryDy=0;" edge="1" parent="1" source="2" target="8">
          <mxGeometry width="100" height="100" relative="1" as="geometry">
            <mxPoint x="580" y="180" as="sourcePoint" />
            <mxPoint x="1710" y="170" as="targetPoint" />
          </mxGeometry>
        </mxCell>
        <mxCell id="234" value="" style="edgeStyle=elbowEdgeStyle;elbow=vertical;rounded=0;fontColor=#000000;endArrow=none;endFill=0;strokeWidth=8;strokeColor=#23445D;entryX=0.5;entryY=0;entryDx=0;entryDy=0;" edge="1" parent="1" target="5">
          <mxGeometry width="100" height="100" relative="1" as="geometry">
            <mxPoint x="1169" y="100" as="sourcePoint" />
            <mxPoint x="2149" y="169.99999999999977" as="targetPoint" />
          </mxGeometry>
        </mxCell>
        <mxCell id="4" value="Commander" style="whiteSpace=wrap;rounded=1;fillColor=#F2931E;strokeColor=none;shadow=1;fontColor=#FFFFFF;fontStyle=1;fontSize=14" vertex="1" parent="1">
          <mxGeometry x="570" y="169.9999999999998" width="140" height="60" as="geometry" />
        </mxCell>
        <mxCell id="5" value="Préparer une commande" style="whiteSpace=wrap;rounded=1;fillColor=#F2931E;strokeColor=none;shadow=1;fontColor=#FFFFFF;fontStyle=1;fontSize=14" vertex="1" parent="1">
          <mxGeometry x="2080" y="179.9999999999998" width="140" height="60" as="geometry" />
        </mxCell>
        <mxCell id="6" value="Payer" style="whiteSpace=wrap;rounded=1;fillColor=#F2931E;strokeColor=none;shadow=1;fontColor=#FFFFFF;fontStyle=1;fontSize=14" vertex="1" parent="1">
          <mxGeometry x="910" y="169.9999999999998" width="140" height="60" as="geometry" />
        </mxCell>
        <mxCell id="117" value="" style="edgeStyle=elbowEdgeStyle;elbow=vertical;rounded=0;fontColor=#000000;endArrow=none;endFill=0;strokeWidth=8;strokeColor=#23445D;" edge="1" parent="1" source="4" target="44">
          <mxGeometry width="100" height="100" relative="1" as="geometry">
            <mxPoint x="240" y="239.99999999999977" as="sourcePoint" />
            <mxPoint x="340" y="310" as="targetPoint" />
          </mxGeometry>
        </mxCell>
        <mxCell id="23" value="Ajouter une pizza au panier" style="whiteSpace=wrap;rounded=1;fillColor=#a0522d;strokeColor=#6D1F00;shadow=1;fontStyle=0;labelBackgroundColor=none;labelBorderColor=none;fontColor=#ffffff;" vertex="1" parent="1">
          <mxGeometry x="-1080" y="400.0000000000001" width="120" height="60" as="geometry" />
        </mxCell>
        <mxCell id="26" value="Voir les informations  représentatives d&#39;une pizza (nom et photo)" style="whiteSpace=wrap;rounded=1;fillColor=#a0522d;strokeColor=#6D1F00;shadow=1;fontColor=#ffffff;fontStyle=0" vertex="1" parent="1">
          <mxGeometry x="-677.9999999999998" y="409.0000000000001" width="120" height="60" as="geometry" />
        </mxCell>
        <mxCell id="38" value="Ajouter un autre produit au panier" style="whiteSpace=wrap;rounded=1;fillColor=#a0522d;strokeColor=#6D1F00;shadow=1;fontColor=#ffffff;fontStyle=0" vertex="1" parent="1">
          <mxGeometry x="-470.0000000000004" y="382.0000000000001" width="120" height="60" as="geometry" />
        </mxCell>
        <mxCell id="6m1JxplxPn1tWtNCRHSB-253" value="Afficher les informations (nom, photo) sur un produit" style="whiteSpace=wrap;rounded=1;fillColor=#e3c800;strokeColor=#B09500;shadow=1;fontColor=#000000;fontStyle=0" vertex="1" parent="1">
          <mxGeometry x="2288" y="640" width="131" height="63" as="geometry" />
        </mxCell>
        <mxCell id="V6gHmXdaTy05OcrKAaI_-340" value="" style="edgeStyle=elbowEdgeStyle;elbow=horizontal;rounded=0;fontColor=#000000;endArrow=none;endFill=0;strokeWidth=8;strokeColor=#23445D;exitX=0.5;exitY=1;exitDx=0;exitDy=0;" edge="1" parent="1" target="V6gHmXdaTy05OcrKAaI_-347">
          <mxGeometry width="100" height="100" relative="1" as="geometry">
            <mxPoint x="2150" y="1090" as="sourcePoint" />
            <mxPoint x="2150" y="1140" as="targetPoint" />
            <Array as="points" />
          </mxGeometry>
        </mxCell>
        <mxCell id="150" value="" style="edgeStyle=elbowEdgeStyle;elbow=horizontal;rounded=0;fontColor=#000000;endArrow=none;endFill=0;strokeWidth=8;strokeColor=#23445D;" edge="1" parent="1" source="134">
          <mxGeometry width="100" height="100" relative="1" as="geometry">
            <mxPoint x="980" y="330.00000000000045" as="sourcePoint" />
            <mxPoint x="1070" y="390" as="targetPoint" />
            <Array as="points">
              <mxPoint x="1070" y="370" />
            </Array>
          </mxGeometry>
        </mxCell>
        <mxCell id="134" value="Payer en Ligne" style="whiteSpace=wrap;rounded=1;fillColor=#12AAB5;strokeColor=none;shadow=1;fontColor=#FFFFFF;" vertex="1" parent="1">
          <mxGeometry x="1009.9999999999998" y="300.0000000000001" width="120" height="60" as="geometry" />
        </mxCell>
        <mxCell id="155" value="Voir liste de pizzas à prendre" style="whiteSpace=wrap;rounded=1;fillColor=#12AAB5;strokeColor=none;shadow=1;fontColor=#FFFFFF;" vertex="1" parent="1">
          <mxGeometry x="1179.9999999999998" y="300.0000000000002" width="120" height="60" as="geometry" />
        </mxCell>
        <mxCell id="V6gHmXdaTy05OcrKAaI_-268" value="Creation  d&#39;une alerte" style="whiteSpace=wrap;rounded=1;fillColor=#a0522d;strokeColor=#6D1F00;shadow=1;fontStyle=0;fontColor=#ffffff;" vertex="1" parent="1">
          <mxGeometry x="1230" y="1120" width="120" height="70" as="geometry" />
        </mxCell>
        <mxCell id="156" value="Voir adresse(s) client(s)" style="whiteSpace=wrap;rounded=1;fillColor=#12AAB5;strokeColor=none;shadow=1;fontColor=#FFFFFF;" vertex="1" parent="1">
          <mxGeometry x="1379.9999999999998" y="300.0000000000002" width="120" height="60" as="geometry" />
        </mxCell>
        <mxCell id="44" value="Voir éléments commande" style="whiteSpace=wrap;rounded=1;fillColor=#12AAB5;strokeColor=none;shadow=1;fontColor=#FFFFFF;" vertex="1" parent="1">
          <mxGeometry x="679.9999999999998" y="300.0000000000001" width="120" height="60" as="geometry" />
        </mxCell>
        <mxCell id="43" value="Voir prix commande" style="whiteSpace=wrap;rounded=1;fillColor=#12AAB5;strokeColor=none;shadow=1;fontColor=#FFFFFF;" vertex="1" parent="1">
          <mxGeometry x="249.99999999999977" y="300.0000000000001" width="120" height="60" as="geometry" />
        </mxCell>
        <mxCell id="V6gHmXdaTy05OcrKAaI_-275" value="Afficher les stats selon critère" style="whiteSpace=wrap;rounded=1;fillColor=#a0522d;strokeColor=#6D1F00;shadow=1;fontStyle=0;fontColor=#ffffff;" vertex="1" parent="1">
          <mxGeometry x="1710" y="1020" width="120" height="70" as="geometry" />
        </mxCell>
        <mxCell id="3" value="Consulter Menu" style="whiteSpace=wrap;rounded=1;fillColor=#F2931E;strokeColor=none;shadow=1;fontColor=#FFFFFF;fontStyle=1;fontSize=14" vertex="1" parent="1">
          <mxGeometry x="-490" y="159.9999999999998" width="140" height="60" as="geometry" />
        </mxCell>
        <mxCell id="V6gHmXdaTy05OcrKAaI_-353" value="" style="edgeStyle=elbowEdgeStyle;elbow=horizontal;rounded=0;fontColor=#000000;endArrow=none;endFill=0;strokeWidth=8;strokeColor=#23445D;" edge="1" parent="1">
          <mxGeometry width="100" height="100" relative="1" as="geometry">
            <mxPoint x="599.6200000000001" y="260" as="sourcePoint" />
            <mxPoint x="600" y="260" as="targetPoint" />
            <Array as="points" />
          </mxGeometry>
        </mxCell>
        <mxCell id="40" value="Voir les informations représentatives d&#39;un autre produit (nom et photo)" style="whiteSpace=wrap;rounded=1;fillColor=#a0522d;strokeColor=#6D1F00;shadow=1;fontColor=#ffffff;fontStyle=0" vertex="1" parent="1">
          <mxGeometry x="-90.00000000000028" y="382.0000000000001" width="120" height="60" as="geometry" />
        </mxCell>
        <mxCell id="V6gHmXdaTy05OcrKAaI_-336" value="Choisir la pizza a mettre en avant" style="whiteSpace=wrap;rounded=1;fillColor=#a0522d;strokeColor=#6D1F00;shadow=1;fontStyle=0;fontColor=#ffffff;" vertex="1" parent="1">
          <mxGeometry x="2089" y="1020" width="120" height="70" as="geometry" />
        </mxCell>
        <mxCell id="103" value="" style="edgeStyle=elbowEdgeStyle;elbow=vertical;rounded=0;fontColor=#000000;endArrow=none;endFill=0;strokeWidth=8;strokeColor=#23445D;" edge="1" parent="1" source="3" target="10">
          <mxGeometry width="100" height="100" relative="1" as="geometry">
            <mxPoint x="-240" y="280" as="sourcePoint" />
            <mxPoint x="-140" y="180" as="targetPoint" />
            <Array as="points">
              <mxPoint x="-420" y="250" />
            </Array>
          </mxGeometry>
        </mxCell>
        <mxCell id="133" value="Payer au comptoir" style="whiteSpace=wrap;rounded=1;fillColor=#12AAB5;strokeColor=none;shadow=1;fontColor=#FFFFFF;" vertex="1" parent="1">
          <mxGeometry x="849.9999999999998" y="300.0000000000001" width="120" height="60" as="geometry" />
        </mxCell>
        <mxCell id="V6gHmXdaTy05OcrKAaI_-272" value="" style="edgeStyle=elbowEdgeStyle;elbow=horizontal;rounded=0;fontColor=#000000;endArrow=none;endFill=0;strokeWidth=8;strokeColor=#23445D;entryX=0.5;entryY=0;entryDx=0;entryDy=0;exitX=0.5;exitY=1;exitDx=0;exitDy=0;" edge="1" parent="1" source="V6gHmXdaTy05OcrKAaI_-268" target="V6gHmXdaTy05OcrKAaI_-269">
          <mxGeometry width="100" height="100" relative="1" as="geometry">
            <mxPoint x="1210" y="1200" as="sourcePoint" />
            <mxPoint x="1220" y="1250" as="targetPoint" />
            <Array as="points" />
          </mxGeometry>
        </mxCell>
        <mxCell id="u-C1nV4K4zA9UqfMprvB-236" value="Aller vers la page paiement" style="whiteSpace=wrap;rounded=1;fillColor=#a0522d;strokeColor=#6D1F00;shadow=1;fontColor=#ffffff;fontStyle=0" vertex="1" parent="1">
          <mxGeometry x="629.9999999999995" y="408.9999999999997" width="120" height="60" as="geometry" />
        </mxCell>
        <mxCell id="178" value="Mettre en avant Pizza" style="whiteSpace=wrap;rounded=1;fillColor=#12AAB5;strokeColor=none;shadow=1;fontColor=#FFFFFF;" vertex="1" parent="1">
          <mxGeometry x="2089" y="909.9999999999999" width="120" height="60" as="geometry" />
        </mxCell>
        <mxCell id="V6gHmXdaTy05OcrKAaI_-350" value="Confirmer Paiement" style="whiteSpace=wrap;rounded=1;fillColor=#e3c800;strokeColor=#B09500;shadow=1;fontColor=#000000;fontStyle=0" vertex="1" parent="1">
          <mxGeometry x="1009.9999999999998" y="489.99999999999955" width="120" height="60" as="geometry" />
        </mxCell>
        <mxCell id="ShuSaSzqqZQVsuANjubq-240" value="finaliser commande" style="whiteSpace=wrap;rounded=1;fillColor=#12AAB5;strokeColor=none;shadow=1;fontColor=#FFFFFF;" vertex="1" parent="1">
          <mxGeometry x="549.9999999999998" y="300.0000000000001" width="120" height="60" as="geometry" />
        </mxCell>
        <mxCell id="ShuSaSzqqZQVsuANjubq-244" value="" style="edgeStyle=elbowEdgeStyle;elbow=vertical;rounded=0;fontColor=#000000;endArrow=none;endFill=0;strokeWidth=8;strokeColor=#23445D;entryX=0.441;entryY=-0.014;entryDx=0;entryDy=0;entryPerimeter=0;" edge="1" parent="1" target="u-C1nV4K4zA9UqfMprvB-236">
          <mxGeometry width="100" height="100" relative="1" as="geometry">
            <mxPoint x="620" y="360" as="sourcePoint" />
            <mxPoint x="735.8799999999997" y="410.17999999999984" as="targetPoint" />
            <Array as="points">
              <mxPoint x="650" y="380" />
            </Array>
          </mxGeometry>
        </mxCell>
        <mxCell id="116" value="" style="edgeStyle=elbowEdgeStyle;elbow=vertical;rounded=0;fontColor=#000000;endArrow=none;endFill=0;strokeWidth=8;strokeColor=#23445D;" edge="1" parent="1" source="4" target="43">
          <mxGeometry width="100" height="100" relative="1" as="geometry">
            <mxPoint x="240" y="239.99999999999977" as="sourcePoint" />
            <mxPoint x="140" y="310" as="targetPoint" />
          </mxGeometry>
        </mxCell>
        <mxCell id="27" value="Voir la liste des allergènes présents sur une pizza" style="whiteSpace=wrap;rounded=1;fillColor=#e3c800;strokeColor=#B09500;shadow=1;fontColor=#000000;fontStyle=0" vertex="1" parent="1">
          <mxGeometry x="-979.9999999999997" y="540.0000000000001" width="120" height="60" as="geometry" />
        </mxCell>
        <mxCell id="V6gHmXdaTy05OcrKAaI_-335" value="Ajouter/Retirer Recette" style="whiteSpace=wrap;rounded=1;fillColor=#a0522d;strokeColor=#6D1F00;shadow=1;fontStyle=0;fontColor=#ffffff;" vertex="1" parent="1">
          <mxGeometry x="1909" y="1020" width="120" height="70" as="geometry" />
        </mxCell>
        <mxCell id="ShuSaSzqqZQVsuANjubq-234" value="" style="edgeStyle=orthogonalEdgeStyle;rounded=0;orthogonalLoop=1;jettySize=auto;html=1;" edge="1" parent="1" source="V6gHmXdaTy05OcrKAaI_-348" target="134">
          <mxGeometry relative="1" as="geometry" />
        </mxCell>
        <mxCell id="200" value="Voir la liste de commandes prêtes à être livrées" style="whiteSpace=wrap;rounded=1;fillColor=#12AAB5;strokeColor=none;shadow=1;fontColor=#FFFFFF;" vertex="1" parent="1">
          <mxGeometry x="2480" y="290" width="120" height="60" as="geometry" />
        </mxCell>
        <mxCell id="u-C1nV4K4zA9UqfMprvB-235" value="Entrer informations personnelles" style="whiteSpace=wrap;rounded=1;fillColor=#a0522d;strokeColor=#6D1F00;shadow=1;fontColor=#ffffff;fontStyle=0" vertex="1" parent="1">
          <mxGeometry x="499.99999999999955" y="408.9999999999997" width="120" height="60" as="geometry" />
        </mxCell>
        <mxCell id="2" value="Augmenter chiffre d&#39;affaire" style="whiteSpace=wrap;rounded=1;shadow=1;fillColor=#10739E;strokeColor=none;fontColor=#FFFFFF;fontStyle=1;fontSize=24" vertex="1" parent="1">
          <mxGeometry x="1000" y="50" width="340" height="60" as="geometry" />
        </mxCell>
        <mxCell id="177" value="MàJ Liste Recette " style="whiteSpace=wrap;rounded=1;fillColor=#12AAB5;strokeColor=none;shadow=0;fontColor=#FFFFFF;" vertex="1" parent="1">
          <mxGeometry x="1908.9999999999998" y="909.9999999999999" width="120" height="60" as="geometry" />
        </mxCell>
        <mxCell id="205" value="Afficher les ingrédients à mettre dans la pizza" style="whiteSpace=wrap;rounded=1;fillColor=#e3c800;strokeColor=#B09500;shadow=1;fontColor=#000000;fontStyle=0" vertex="1" parent="1">
          <mxGeometry x="2136" y="639.9999999999997" width="120" height="60" as="geometry" />
        </mxCell>
        <mxCell id="201" value="Valider la préparation d&#39;une commande (ajouter à la liste des commandes prêtes)" style="whiteSpace=wrap;rounded=1;fillColor=#a0522d;strokeColor=#6D1F00;shadow=1;fontColor=#ffffff;fontStyle=0" vertex="1" parent="1">
          <mxGeometry x="1819" y="470" width="120" height="80" as="geometry" />
        </mxCell>
        <mxCell id="8" value="Gérer Pizzeria" style="whiteSpace=wrap;rounded=1;fillColor=#F2931E;strokeColor=none;shadow=1;fontColor=#FFFFFF;fontStyle=1;fontSize=14" vertex="1" parent="1">
          <mxGeometry x="1590" y="179.9999999999998" width="140" height="60" as="geometry" />
        </mxCell>
        <mxCell id="u-C1nV4K4zA9UqfMprvB-234" value="gérer éléments panier" style="whiteSpace=wrap;rounded=1;fillColor=#12AAB5;strokeColor=none;shadow=1;fontColor=#FFFFFF;" vertex="1" parent="1">
          <mxGeometry x="409.9999999999998" y="300.0000000000001" width="120" height="60" as="geometry" />
        </mxCell>
        <mxCell id="199" value="Voir la liste des commandes en cours de préparation" style="whiteSpace=wrap;rounded=1;fillColor=#12AAB5;strokeColor=none;shadow=1;fontColor=#FFFFFF;" vertex="1" parent="1">
          <mxGeometry x="1909.9999999999998" y="279.9999999999997" width="120" height="60" as="geometry" />
        </mxCell>
        <mxCell id="V6gHmXdaTy05OcrKAaI_-348" value="Fournir Info Paiement" style="whiteSpace=wrap;rounded=1;fillColor=#a0522d;strokeColor=#6D1F00;shadow=1;fontStyle=0;fontColor=#ffffff;" vertex="1" parent="1">
          <mxGeometry x="1010" y="390" width="120" height="70" as="geometry" />
        </mxCell>
        <mxCell id="V6gHmXdaTy05OcrKAaI_-315" value="" style="edgeStyle=elbowEdgeStyle;elbow=horizontal;rounded=0;fontColor=#000000;endArrow=none;endFill=0;strokeWidth=8;strokeColor=#23445D;entryX=0.5;entryY=0;entryDx=0;entryDy=0;" edge="1" parent="1">
          <mxGeometry width="100" height="100" relative="1" as="geometry">
            <mxPoint x="1761" y="830" as="sourcePoint" />
            <mxPoint x="1760" y="910" as="targetPoint" />
            <Array as="points">
              <mxPoint x="1762" y="860" />
            </Array>
          </mxGeometry>
        </mxCell>
        <mxCell id="7" value="Livrer" style="whiteSpace=wrap;rounded=1;fillColor=#F2931E;strokeColor=none;shadow=1;fontColor=#FFFFFF;fontStyle=1;fontSize=14" vertex="1" parent="1">
          <mxGeometry x="1270" y="169.9999999999998" width="140" height="60" as="geometry" />
        </mxCell>
        <mxCell id="V6gHmXdaTy05OcrKAaI_-334" value="" style="edgeStyle=elbowEdgeStyle;elbow=horizontal;rounded=0;fontColor=#000000;endArrow=none;endFill=0;strokeWidth=8;strokeColor=#23445D;exitX=0.5;exitY=1;exitDx=0;exitDy=0;entryX=0.5;entryY=0;entryDx=0;entryDy=0;" edge="1" parent="1">
          <mxGeometry width="100" height="100" relative="1" as="geometry">
            <mxPoint x="1968.79" y="970" as="sourcePoint" />
            <mxPoint x="1968.79" y="1020" as="targetPoint" />
            <Array as="points" />
          </mxGeometry>
        </mxCell>
        <mxCell id="204" value="Afficher les informations (nom, photo) sur une pizza" style="whiteSpace=wrap;rounded=1;fillColor=#e3c800;strokeColor=#B09500;shadow=1;fontColor=#000000;fontStyle=0" vertex="1" parent="1">
          <mxGeometry x="1850" y="639.9999999999997" width="120" height="60" as="geometry" />
        </mxCell>
        <mxCell id="6m1JxplxPn1tWtNCRHSB-250" value="Voir la liste des produits contenus dans une commande" style="whiteSpace=wrap;rounded=1;fillColor=#a0522d;strokeColor=#6D1F00;shadow=1;fontStyle=0;fontColor=#ffffff;" vertex="1" parent="1">
          <mxGeometry x="2293" y="471" width="119" height="70" as="geometry" />
        </mxCell>
        <mxCell id="hF1sT5TiYHARfhPCqGAg-234" value="" style="edgeStyle=orthogonalEdgeStyle;rounded=0;orthogonalLoop=1;jettySize=auto;html=1;" edge="1" parent="1" source="V6gHmXdaTy05OcrKAaI_-267" target="V6gHmXdaTy05OcrKAaI_-268">
          <mxGeometry relative="1" as="geometry" />
        </mxCell>
        <mxCell id="V6gHmXdaTy05OcrKAaI_-267" value="Cree Une Alerte" style="whiteSpace=wrap;rounded=1;fillColor=#008080;strokeColor=none;shadow=1;fontColor=#FFFFFF;fontStyle=0" vertex="1" parent="1">
          <mxGeometry x="1229.9999999999998" y="1010" width="120" height="60" as="geometry" />
        </mxCell>
        <mxCell id="203" value="Afficher les ingrédients contenus d&#39;une pizza" style="whiteSpace=wrap;rounded=1;fillColor=#e3c800;strokeColor=#B09500;shadow=1;fontColor=#000000;fontStyle=0" vertex="1" parent="1">
          <mxGeometry x="1990.9999999999998" y="639.9999999999997" width="120" height="60" as="geometry" />
        </mxCell>
        <mxCell id="ShuSaSzqqZQVsuANjubq-243" value="" style="edgeStyle=elbowEdgeStyle;elbow=vertical;rounded=0;fontColor=#000000;endArrow=none;endFill=0;strokeWidth=8;strokeColor=#23445D;" edge="1" parent="1">
          <mxGeometry width="100" height="100" relative="1" as="geometry">
            <mxPoint x="620" y="362" as="sourcePoint" />
            <mxPoint x="560" y="407" as="targetPoint" />
            <Array as="points">
              <mxPoint x="590" y="380" />
            </Array>
          </mxGeometry>
        </mxCell>
        <mxCell id="41" value="Voir la liste des allergènes présents sur un autre produit" style="whiteSpace=wrap;rounded=1;fillColor=#e3c800;strokeColor=#B09500;shadow=1;fontColor=#000000;fontStyle=0" vertex="1" parent="1">
          <mxGeometry x="-300.0000000000001" y="510.0000000000001" width="120" height="60" as="geometry" />
        </mxCell>
        <mxCell id="V6gHmXdaTy05OcrKAaI_-356" value="" style="edgeStyle=elbowEdgeStyle;elbow=vertical;rounded=0;fontColor=#000000;endArrow=none;endFill=0;strokeWidth=8;strokeColor=#23445D;exitX=0.5;exitY=1;exitDx=0;exitDy=0;entryX=0.5;entryY=0;entryDx=0;entryDy=0;" edge="1" parent="1" source="202" target="204">
          <mxGeometry width="100" height="100" relative="1" as="geometry">
            <mxPoint x="2060" y="550" as="sourcePoint" />
            <mxPoint x="2060" y="630" as="targetPoint" />
            <Array as="points">
              <mxPoint x="1930" y="610" />
            </Array>
          </mxGeometry>
        </mxCell>
        <mxCell id="V6gHmXdaTy05OcrKAaI_-269" value="Mettre l&#39;alerte en Place" style="whiteSpace=wrap;rounded=1;fillColor=#fad9d5;strokeColor=#ae4132;shadow=1;fontStyle=0" vertex="1" parent="1">
          <mxGeometry x="1229.9999999999998" y="1249.9999999999995" width="120" height="60" as="geometry" />
        </mxCell>
        <mxCell id="V6gHmXdaTy05OcrKAaI_-357" value="" style="edgeStyle=elbowEdgeStyle;elbow=vertical;rounded=0;fontColor=#000000;endArrow=none;endFill=0;strokeWidth=8;strokeColor=#23445D;exitX=0.5;exitY=1;exitDx=0;exitDy=0;entryX=0.5;entryY=0;entryDx=0;entryDy=0;" edge="1" parent="1" source="202" target="205">
          <mxGeometry width="100" height="100" relative="1" as="geometry">
            <mxPoint x="2070" y="560" as="sourcePoint" />
            <mxPoint x="2070" y="640" as="targetPoint" />
            <Array as="points">
              <mxPoint x="2130" y="610" />
            </Array>
          </mxGeometry>
        </mxCell>
        <mxCell id="V6gHmXdaTy05OcrKAaI_-363" value="" style="edgeStyle=elbowEdgeStyle;elbow=horizontal;rounded=0;fontColor=#000000;endArrow=none;endFill=0;strokeWidth=8;strokeColor=#23445D;entryX=0.5;entryY=0;entryDx=0;entryDy=0;" edge="1" parent="1">
          <mxGeometry width="100" height="100" relative="1" as="geometry">
            <mxPoint x="1970.2499999999998" y="390" as="sourcePoint" />
            <mxPoint x="1969.7499999999998" y="340" as="targetPoint" />
            <Array as="points" />
          </mxGeometry>
        </mxCell>
        <mxCell id="V6gHmXdaTy05OcrKAaI_-314" value="" style="edgeStyle=elbowEdgeStyle;elbow=horizontal;rounded=0;fontColor=#000000;endArrow=none;endFill=0;strokeWidth=8;strokeColor=#23445D;" edge="1" parent="1">
          <mxGeometry width="100" height="100" relative="1" as="geometry">
            <mxPoint x="2162" y="907" as="sourcePoint" />
            <mxPoint x="1658" y="827" as="targetPoint" />
            <Array as="points">
              <mxPoint x="2162" y="817" />
            </Array>
          </mxGeometry>
        </mxCell>
        <mxCell id="V6gHmXdaTy05OcrKAaI_-266" value="" style="edgeStyle=elbowEdgeStyle;elbow=horizontal;rounded=0;fontColor=#000000;endArrow=none;endFill=0;strokeWidth=8;strokeColor=#23445D;entryX=0.535;entryY=0.02;entryDx=0;entryDy=0;entryPerimeter=0;" edge="1" parent="1">
          <mxGeometry width="100" height="100" relative="1" as="geometry">
            <mxPoint x="1290.4" y="1068.6" as="sourcePoint" />
            <mxPoint x="1289.6000000000001" y="1120" as="targetPoint" />
            <Array as="points">
              <mxPoint x="1290.4" y="1088.6" />
            </Array>
          </mxGeometry>
        </mxCell>
        <mxCell id="V6gHmXdaTy05OcrKAaI_-277" value="" style="edgeStyle=elbowEdgeStyle;elbow=horizontal;rounded=0;fontColor=#000000;endArrow=none;endFill=0;strokeWidth=8;strokeColor=#23445D;exitX=0.5;exitY=1;exitDx=0;exitDy=0;entryX=0.5;entryY=0;entryDx=0;entryDy=0;" edge="1" parent="1" source="179" target="V6gHmXdaTy05OcrKAaI_-275">
          <mxGeometry width="100" height="100" relative="1" as="geometry">
            <mxPoint x="1829" y="950" as="sourcePoint" />
            <mxPoint x="1919" y="950" as="targetPoint" />
            <Array as="points" />
          </mxGeometry>
        </mxCell>
        <mxCell id="6m1JxplxPn1tWtNCRHSB-251" value="Indiquer au gestionnaire que les commandes ont été préparées" style="whiteSpace=wrap;rounded=1;fillColor=#a0522d;strokeColor=#6D1F00;shadow=1;fontColor=#ffffff;fontStyle=0" vertex="1" parent="1">
          <mxGeometry x="2474.5" y="390" width="131" height="63" as="geometry" />
        </mxCell>
        <mxCell id="6m1JxplxPn1tWtNCRHSB-249" value="" style="edgeStyle=elbowEdgeStyle;elbow=horizontal;rounded=0;fontColor=#000000;endArrow=none;endFill=0;strokeWidth=8;strokeColor=#23445D;entryX=0.5;entryY=0;entryDx=0;entryDy=0;" edge="1" parent="1">
          <mxGeometry width="100" height="100" relative="1" as="geometry">
            <mxPoint x="2540" y="390" as="sourcePoint" />
            <mxPoint x="2539.5" y="350" as="targetPoint" />
            <Array as="points" />
          </mxGeometry>
        </mxCell>
        <mxCell id="V6gHmXdaTy05OcrKAaI_-316" value="" style="edgeStyle=elbowEdgeStyle;elbow=horizontal;rounded=0;fontColor=#000000;endArrow=none;endFill=0;strokeWidth=8;strokeColor=#23445D;entryX=0.5;entryY=0;entryDx=0;entryDy=0;" edge="1" parent="1">
          <mxGeometry width="100" height="100" relative="1" as="geometry">
            <mxPoint x="1971" y="830" as="sourcePoint" />
            <mxPoint x="1970" y="910" as="targetPoint" />
            <Array as="points">
              <mxPoint x="1972" y="860" />
            </Array>
          </mxGeometry>
        </mxCell>
        <mxCell id="104" value="" style="edgeStyle=elbowEdgeStyle;elbow=vertical;rounded=0;fontColor=#000000;endArrow=none;endFill=0;strokeWidth=8;strokeColor=#23445D;" edge="1" parent="1">
          <mxGeometry width="100" height="100" relative="1" as="geometry">
            <mxPoint x="-420" y="214.99999999999977" as="sourcePoint" />
            <mxPoint x="-240" y="285" as="targetPoint" />
          </mxGeometry>
        </mxCell>
        <mxCell id="V6gHmXdaTy05OcrKAaI_-347" value="Mettre la pizza en avant en page d&#39;accueil" style="whiteSpace=wrap;rounded=1;fillColor=#e3c800;strokeColor=#B09500;shadow=1;fontColor=#000000;fontStyle=0" vertex="1" parent="1">
          <mxGeometry x="2089" y="1139.9999999999995" width="120" height="60" as="geometry" />
        </mxCell>
        <mxCell id="202" value="Voir la liste des pizzas contenus dans une commande" style="whiteSpace=wrap;rounded=1;fillColor=#a0522d;strokeColor=#6D1F00;shadow=1;fontStyle=0;fontColor=#ffffff;" vertex="1" parent="1">
          <mxGeometry x="1991" y="469" width="119" height="70" as="geometry" />
        </mxCell>
        <mxCell id="V6gHmXdaTy05OcrKAaI_-308" value="" style="edgeStyle=elbowEdgeStyle;elbow=horizontal;rounded=0;fontColor=#000000;endArrow=none;endFill=0;strokeWidth=8;strokeColor=#23445D;exitX=0.5;exitY=1;exitDx=0;exitDy=0;entryX=0.5;entryY=0;entryDx=0;entryDy=0;" edge="1" parent="1" source="8" target="181">
          <mxGeometry width="100" height="100" relative="1" as="geometry">
            <mxPoint x="1601" y="169.99999999999977" as="sourcePoint" />
            <mxPoint x="1350" y="870" as="targetPoint" />
            <Array as="points">
              <mxPoint x="1660" y="830" />
            </Array>
          </mxGeometry>
        </mxCell>
        <mxCell id="dm_EX0qf1FXLAY87XQct-234" value="Voir la liste des ingrédients d&#39;un autre produit" style="whiteSpace=wrap;rounded=1;fillColor=#a0522d;strokeColor=#6D1F00;shadow=1;fontColor=#ffffff;fontStyle=0" vertex="1" parent="1">
          <mxGeometry x="-299.99999999999994" y="382.0000000000001" width="120" height="60" as="geometry" />
        </mxCell>
        <mxCell id="V6gHmXdaTy05OcrKAaI_-364" value="" style="edgeStyle=elbowEdgeStyle;elbow=horizontal;rounded=0;fontColor=#000000;endArrow=none;endFill=0;strokeWidth=8;strokeColor=#23445D;" edge="1" parent="1">
          <mxGeometry width="100" height="100" relative="1" as="geometry">
            <mxPoint x="2360" y="390" as="sourcePoint" />
            <mxPoint x="2050" y="390" as="targetPoint" />
            <Array as="points" />
          </mxGeometry>
        </mxCell>
        <mxCell id="ShuSaSzqqZQVsuANjubq-245" value="Indiquer statut livraison" style="whiteSpace=wrap;rounded=1;fillColor=#a0522d;strokeColor=#6D1F00;shadow=1;fontStyle=0;fontColor=#ffffff;" vertex="1" parent="1">
          <mxGeometry x="1180" y="390" width="120" height="70" as="geometry" />
        </mxCell>
        <mxCell id="6m1JxplxPn1tWtNCRHSB-254" value="" style="edgeStyle=elbowEdgeStyle;elbow=vertical;rounded=0;fontColor=#000000;endArrow=none;endFill=0;strokeWidth=8;strokeColor=#23445D;" edge="1" parent="1">
          <mxGeometry width="100" height="100" relative="1" as="geometry">
            <mxPoint x="2360" y="391" as="sourcePoint" />
            <mxPoint x="2360" y="470" as="targetPoint" />
            <Array as="points" />
          </mxGeometry>
        </mxCell>
        <mxCell id="ShuSaSzqqZQVsuANjubq-246" value="Indiquer statut livreur" style="whiteSpace=wrap;rounded=1;fillColor=#a0522d;strokeColor=#6D1F00;shadow=1;fontStyle=0;fontColor=#ffffff;" vertex="1" parent="1">
          <mxGeometry x="1379" y="390" width="120" height="70" as="geometry" />
        </mxCell>
        <mxCell id="6m1JxplxPn1tWtNCRHSB-255" value="" style="edgeStyle=elbowEdgeStyle;elbow=horizontal;rounded=0;fontColor=#000000;endArrow=none;endFill=0;strokeWidth=8;strokeColor=#23445D;entryX=0.5;entryY=0;entryDx=0;entryDy=0;" edge="1" parent="1" target="6m1JxplxPn1tWtNCRHSB-253">
          <mxGeometry width="100" height="100" relative="1" as="geometry">
            <mxPoint x="2352.46" y="541" as="sourcePoint" />
            <mxPoint x="2352.004" y="618.39" as="targetPoint" />
            <Array as="points" />
          </mxGeometry>
        </mxCell>
        <mxCell id="ShuSaSzqqZQVsuANjubq-248" value="" style="edgeStyle=elbowEdgeStyle;elbow=horizontal;rounded=0;fontColor=#000000;endArrow=none;endFill=0;strokeWidth=8;strokeColor=#23445D;" edge="1" parent="1">
          <mxGeometry width="100" height="100" relative="1" as="geometry">
            <mxPoint x="1239.83" y="360" as="sourcePoint" />
            <mxPoint x="1239.83" y="390" as="targetPoint" />
            <Array as="points">
              <mxPoint x="1239.83" y="370" />
            </Array>
          </mxGeometry>
        </mxCell>
        <mxCell id="ShuSaSzqqZQVsuANjubq-249" value="" style="edgeStyle=elbowEdgeStyle;elbow=horizontal;rounded=0;fontColor=#000000;endArrow=none;endFill=0;strokeWidth=8;strokeColor=#23445D;" edge="1" parent="1">
          <mxGeometry width="100" height="100" relative="1" as="geometry">
            <mxPoint x="1439.8" y="360" as="sourcePoint" />
            <mxPoint x="1439.8" y="390" as="targetPoint" />
            <Array as="points">
              <mxPoint x="1439.8" y="370" />
            </Array>
          </mxGeometry>
        </mxCell>
        <mxCell id="V6gHmXdaTy05OcrKAaI_-250" value="Ajouter/Retirer Ingrédients" style="whiteSpace=wrap;rounded=1;fillColor=#e3c800;strokeColor=#B09500;shadow=1;fontColor=#000000;fontStyle=0" vertex="1" parent="1">
          <mxGeometry x="1399" y="1126" width="121" height="67" as="geometry" />
        </mxCell>
        <mxCell id="V6gHmXdaTy05OcrKAaI_-252" value="" style="edgeStyle=elbowEdgeStyle;elbow=horizontal;rounded=0;fontColor=#000000;endArrow=none;endFill=0;strokeWidth=8;strokeColor=#23445D;exitX=0.5;exitY=1;exitDx=0;exitDy=0;" edge="1" parent="1" source="V6gHmXdaTy05OcrKAaI_-246">
          <mxGeometry width="100" height="100" relative="1" as="geometry">
            <mxPoint x="1609" y="1080" as="sourcePoint" />
            <mxPoint x="1609" y="1153" as="targetPoint" />
            <Array as="points" />
          </mxGeometry>
        </mxCell>
        <mxCell id="V6gHmXdaTy05OcrKAaI_-253" value="" style="edgeStyle=elbowEdgeStyle;elbow=horizontal;rounded=0;fontColor=#000000;endArrow=none;endFill=0;strokeWidth=8;strokeColor=#23445D;entryX=0.5;entryY=0;entryDx=0;entryDy=0;exitX=0.5;exitY=1;exitDx=0;exitDy=0;" edge="1" parent="1" source="V6gHmXdaTy05OcrKAaI_-245" target="V6gHmXdaTy05OcrKAaI_-250">
          <mxGeometry width="100" height="100" relative="1" as="geometry">
            <mxPoint x="1449" y="1090" as="sourcePoint" />
            <mxPoint x="1459" y="1140" as="targetPoint" />
            <Array as="points" />
          </mxGeometry>
        </mxCell>
        <mxCell id="V6gHmXdaTy05OcrKAaI_-248" value="" style="edgeStyle=elbowEdgeStyle;elbow=horizontal;rounded=0;fontColor=#000000;endArrow=none;endFill=0;strokeWidth=8;strokeColor=#23445D;exitX=0.5;exitY=1;exitDx=0;exitDy=0;entryX=0.5;entryY=0;entryDx=0;entryDy=0;" edge="1" parent="1" source="181" target="V6gHmXdaTy05OcrKAaI_-246">
          <mxGeometry width="100" height="100" relative="1" as="geometry">
            <mxPoint x="1549" y="960" as="sourcePoint" />
            <mxPoint x="1619" y="1020" as="targetPoint" />
            <Array as="points">
              <mxPoint x="1619" y="980" />
            </Array>
          </mxGeometry>
        </mxCell>
        <mxCell id="181" value="Gerer Le Stock" style="whiteSpace=wrap;rounded=1;fillColor=#408080;strokeColor=none;shadow=1;fontColor=#FFFFFF;fontStyle=0" vertex="1" parent="1">
          <mxGeometry x="1389.9999999999998" y="920" width="120" height="60" as="geometry" />
        </mxCell>
        <mxCell id="179" value="Consulter Stats" style="whiteSpace=wrap;rounded=1;fillColor=#61A195;strokeColor=none;shadow=1;fontColor=#FFFFFF;fontStyle=0" vertex="1" parent="1">
          <mxGeometry x="1710" y="910" width="120" height="60" as="geometry" />
        </mxCell>
        <mxCell id="hF1sT5TiYHARfhPCqGAg-236" value="Cree une alerte" style="whiteSpace=wrap;rounded=1;fillColor=#a0522d;strokeColor=#6D1F00;shadow=1;fontStyle=0;fontColor=#ffffff;" vertex="1" parent="1">
          <mxGeometry x="1230" y="1005" width="120" height="75" as="geometry" />
        </mxCell>
        <mxCell id="hF1sT5TiYHARfhPCqGAg-237" value="Creation d&#39;une alerte sur un stock" style="whiteSpace=wrap;rounded=1;fillColor=#e3c800;strokeColor=#B09500;shadow=1;fontColor=#000000;fontStyle=0" vertex="1" parent="1">
          <mxGeometry x="1230" y="1120" width="120" height="70" as="geometry" />
        </mxCell>
        <mxCell id="hF1sT5TiYHARfhPCqGAg-239" value="" style="edgeStyle=elbowEdgeStyle;elbow=horizontal;rounded=0;fontColor=#000000;endArrow=none;endFill=0;strokeWidth=8;strokeColor=#23445D;exitX=0.5;exitY=1;exitDx=0;exitDy=0;" edge="1" parent="1" source="181">
          <mxGeometry width="100" height="100" relative="1" as="geometry">
            <mxPoint x="1458.71" y="1005" as="sourcePoint" />
            <mxPoint x="1459" y="1020" as="targetPoint" />
            <Array as="points" />
          </mxGeometry>
        </mxCell>
        <mxCell id="V6gHmXdaTy05OcrKAaI_-245" value="Consulter Stock ingrédient" style="whiteSpace=wrap;rounded=1;fillColor=#a0522d;strokeColor=#6D1F00;shadow=1;fontStyle=0;fontColor=#ffffff;" vertex="1" parent="1">
          <mxGeometry x="1399" y="1010" width="120" height="70" as="geometry" />
        </mxCell>
        <mxCell id="hF1sT5TiYHARfhPCqGAg-240" value="" style="edgeStyle=elbowEdgeStyle;elbow=horizontal;rounded=0;fontColor=#000000;endArrow=none;endFill=0;strokeWidth=8;strokeColor=#23445D;exitX=0.5;exitY=1;exitDx=0;exitDy=0;entryX=0.5;entryY=0;entryDx=0;entryDy=0;" edge="1" parent="1" target="V6gHmXdaTy05OcrKAaI_-246">
          <mxGeometry width="100" height="100" relative="1" as="geometry">
            <mxPoint x="1609" y="1080" as="sourcePoint" />
            <mxPoint x="1609" y="1139.9999999999995" as="targetPoint" />
            <Array as="points" />
          </mxGeometry>
        </mxCell>
        <mxCell id="V6gHmXdaTy05OcrKAaI_-246" value="Consulter Stock Produit" style="whiteSpace=wrap;rounded=1;fillColor=#a0522d;strokeColor=#6D1F00;shadow=1;fontStyle=0;fontColor=#ffffff;" vertex="1" parent="1">
          <mxGeometry x="1560" y="1010" width="120" height="70" as="geometry" />
        </mxCell>
        <mxCell id="V6gHmXdaTy05OcrKAaI_-251" value="Ajouter/Retirer Produit" style="whiteSpace=wrap;rounded=1;fillColor=#e3c800;strokeColor=#B09500;shadow=1;fontColor=#000000;fontStyle=0" vertex="1" parent="1">
          <mxGeometry x="1549.9999999999998" y="1126.9999999999995" width="120" height="60" as="geometry" />
        </mxCell>
        <mxCell id="GvAi1KjWKJ6ykz9oC5kW-237" value="" style="edgeStyle=elbowEdgeStyle;elbow=horizontal;rounded=0;fontColor=#000000;endArrow=none;endFill=0;strokeWidth=8;strokeColor=#23445D;fontStyle=1;exitX=0.5;exitY=1;exitDx=0;exitDy=0;" edge="1" parent="1" source="24" target="27">
          <mxGeometry width="100" height="100" relative="1" as="geometry">
            <mxPoint x="-920.3399999999999" y="490" as="sourcePoint" />
            <mxPoint x="-920.3399999999999" y="520" as="targetPoint" />
            <Array as="points">
              <mxPoint x="-920.3399999999999" y="500" />
            </Array>
          </mxGeometry>
        </mxCell>
        <mxCell id="GvAi1KjWKJ6ykz9oC5kW-238" value="" style="edgeStyle=elbowEdgeStyle;elbow=horizontal;rounded=0;fontColor=#000000;endArrow=none;endFill=0;strokeWidth=8;strokeColor=#23445D;fontStyle=1;exitX=0.5;exitY=1;exitDx=0;exitDy=0;entryX=0.5;entryY=0;entryDx=0;entryDy=0;" edge="1" parent="1" source="24" target="25">
          <mxGeometry width="100" height="100" relative="1" as="geometry">
            <mxPoint x="-820" y="480" as="sourcePoint" />
            <mxPoint x="-910" y="550" as="targetPoint" />
            <Array as="points">
              <mxPoint x="-740" y="510" />
            </Array>
          </mxGeometry>
        </mxCell>
        <mxCell id="25" value="Voir la liste des ingrédients d&#39;une pizza" style="whiteSpace=wrap;rounded=1;fillColor=#e3c800;strokeColor=#B09500;shadow=1;fontColor=#000000;fontStyle=0" vertex="1" parent="1">
          <mxGeometry x="-798" y="540.0000000000001" width="120" height="60" as="geometry" />
        </mxCell>
        <mxCell id="GvAi1KjWKJ6ykz9oC5kW-239" value="" style="edgeStyle=elbowEdgeStyle;elbow=horizontal;rounded=0;fontColor=#000000;endArrow=none;endFill=0;strokeWidth=8;strokeColor=#23445D;fontStyle=1;exitX=0.5;exitY=1;exitDx=0;exitDy=0;entryX=0.5;entryY=0;entryDx=0;entryDy=0;" edge="1" parent="1" source="10" target="24">
          <mxGeometry width="100" height="100" relative="1" as="geometry">
            <mxPoint x="-820" y="480" as="sourcePoint" />
            <mxPoint x="-730" y="550" as="targetPoint" />
            <Array as="points" />
          </mxGeometry>
        </mxCell>
        <mxCell id="24" value="Personaliser une pizza" style="whiteSpace=wrap;rounded=1;fillColor=#a0522d;strokeColor=#6D1F00;shadow=1;fontColor=#ffffff;fontStyle=0" vertex="1" parent="1">
          <mxGeometry x="-889.9999999999999" y="410.0000000000001" width="120" height="60" as="geometry" />
        </mxCell>
        <mxCell id="GvAi1KjWKJ6ykz9oC5kW-240" value="" style="edgeStyle=elbowEdgeStyle;elbow=horizontal;rounded=0;fontColor=#000000;endArrow=none;endFill=0;strokeWidth=8;strokeColor=#23445D;fontStyle=1;exitX=0.46;exitY=1.05;exitDx=0;exitDy=0;exitPerimeter=0;" edge="1" parent="1" source="10">
          <mxGeometry width="100" height="100" relative="1" as="geometry">
            <mxPoint x="-929.66" y="310" as="sourcePoint" />
            <mxPoint x="-1020" y="410.0000000000001" as="targetPoint" />
            <Array as="points">
              <mxPoint x="-1020" y="340" />
            </Array>
          </mxGeometry>
        </mxCell>
        <mxCell id="GvAi1KjWKJ6ykz9oC5kW-241" value="" style="edgeStyle=elbowEdgeStyle;elbow=horizontal;rounded=0;fontColor=#000000;endArrow=none;endFill=0;strokeWidth=8;strokeColor=#23445D;fontStyle=1;exitX=0.5;exitY=1;exitDx=0;exitDy=0;entryX=0.5;entryY=0;entryDx=0;entryDy=0;" edge="1" parent="1" source="10">
          <mxGeometry width="100" height="100" relative="1" as="geometry">
            <mxPoint x="-815" y="373" as="sourcePoint" />
            <mxPoint x="-620" y="410" as="targetPoint" />
            <Array as="points">
              <mxPoint x="-620" y="380" />
            </Array>
          </mxGeometry>
        </mxCell>
        <mxCell id="10" value="Consulter la liste des pizzas" style="whiteSpace=wrap;rounded=1;fillColor=#12AAB5;strokeColor=none;shadow=1;fontColor=#FFFFFF;" vertex="1" parent="1">
          <mxGeometry x="-880" y="300.0000000000001" width="120" height="60" as="geometry" />
        </mxCell>
        <mxCell id="GvAi1KjWKJ6ykz9oC5kW-243" value="" style="edgeStyle=elbowEdgeStyle;elbow=horizontal;rounded=0;fontColor=#000000;endArrow=none;endFill=0;strokeWidth=8;strokeColor=#23445D;fontStyle=1;exitX=0.5;exitY=1;exitDx=0;exitDy=0;entryX=0.5;entryY=0;entryDx=0;entryDy=0;" edge="1" parent="1" source="12" target="38">
          <mxGeometry width="100" height="100" relative="1" as="geometry">
            <mxPoint x="-480" y="505" as="sourcePoint" />
            <mxPoint x="-280" y="555" as="targetPoint" />
            <Array as="points">
              <mxPoint x="-410" y="350" />
            </Array>
          </mxGeometry>
        </mxCell>
        <mxCell id="GvAi1KjWKJ6ykz9oC5kW-244" value="" style="edgeStyle=elbowEdgeStyle;elbow=horizontal;rounded=0;fontColor=#000000;endArrow=none;endFill=0;strokeWidth=8;strokeColor=#23445D;fontStyle=1;exitX=0.5;exitY=0;exitDx=0;exitDy=0;entryX=0.5;entryY=1;entryDx=0;entryDy=0;" edge="1" parent="1" source="dm_EX0qf1FXLAY87XQct-234" target="12">
          <mxGeometry width="100" height="100" relative="1" as="geometry">
            <mxPoint x="-810" y="330" as="sourcePoint" />
            <mxPoint x="-610" y="380" as="targetPoint" />
            <Array as="points" />
          </mxGeometry>
        </mxCell>
        <mxCell id="GvAi1KjWKJ6ykz9oC5kW-245" value="" style="edgeStyle=elbowEdgeStyle;elbow=horizontal;rounded=0;fontColor=#000000;endArrow=none;endFill=0;strokeWidth=8;strokeColor=#23445D;fontStyle=1;exitX=0.5;exitY=1;exitDx=0;exitDy=0;entryX=0.5;entryY=0;entryDx=0;entryDy=0;" edge="1" parent="1" source="12" target="40">
          <mxGeometry width="100" height="100" relative="1" as="geometry">
            <mxPoint x="-230" y="360" as="sourcePoint" />
            <mxPoint x="-400" y="392" as="targetPoint" />
            <Array as="points">
              <mxPoint x="-30" y="360" />
            </Array>
          </mxGeometry>
        </mxCell>
        <mxCell id="12" value="Consulter la liste des autres produits" style="whiteSpace=wrap;rounded=1;fillColor=#12AAB5;strokeColor=none;shadow=1;fontColor=#FFFFFF;" vertex="1" parent="1">
          <mxGeometry x="-300" y="280" width="120" height="60" as="geometry" />
        </mxCell>
        <mxCell id="GvAi1KjWKJ6ykz9oC5kW-247" value="" style="edgeStyle=elbowEdgeStyle;elbow=horizontal;rounded=0;fontColor=#000000;endArrow=none;endFill=0;strokeWidth=8;strokeColor=#23445D;fontStyle=1;exitX=0.5;exitY=1;exitDx=0;exitDy=0;entryX=0.5;entryY=0;entryDx=0;entryDy=0;" edge="1" parent="1" source="dm_EX0qf1FXLAY87XQct-234" target="41">
          <mxGeometry width="100" height="100" relative="1" as="geometry">
            <mxPoint x="-430" y="539" as="sourcePoint" />
            <mxPoint x="-340" y="609" as="targetPoint" />
            <Array as="points">
              <mxPoint x="-240" y="480" />
            </Array>
          </mxGeometry>
        </mxCell>
      </root>
    </mxGraphModel>
  </diagram>
</mxfile>
